<svg xmlns="http://www.w3.org/2000/svg" xmlns:xlink="http://www.w3.org/1999/xlink" viewBox="0 0 215.76 57.65"><defs><style>.cls-1{fill:url(#Безымянный_градиент_2);}.cls-2{fill:#fff;fill-rule:evenodd;}</style><linearGradient id="Безымянный_градиент_2" x1="-1664.74" y1="-90.07" x2="-1664.74" y2="-90.01" gradientTransform="translate(1664773.04 90069.79) scale(1000)" gradientUnits="userSpaceOnUse"><stop offset="0" stop-color="#2aabee"/><stop offset="1" stop-color="#229ed9"/></linearGradient></defs><g id="Слой_2" data-name="Слой 2"><g id="Слой_1-2" data-name="Слой 1"><g id="Artboard"><circle id="Oval" class="cls-1" cx="28.82" cy="28.82" r="28.82"/><path id="Path-3" class="cls-2" d="M13,28.51q12.6-5.48,16.8-7.25c8-3.33,9.67-3.91,10.75-3.93a2,2,0,0,1,1.13.33,1.29,1.29,0,0,1,.41.8,3.93,3.93,0,0,1,.05,1.12c-.43,4.56-2.31,15.63-3.27,20.72-.4,2.16-1.2,2.88-2,3-1.68.14-3-1.11-4.56-2.16-2.55-1.66-4-2.69-6.44-4.32-2.85-1.87-1-2.91.63-4.59.43-.43,7.8-7.15,7.94-7.75a.54.54,0,0,0-.14-.5.64.64,0,0,0-.6-.05c-.27.05-4.3,2.74-12.15,8a5.36,5.36,0,0,1-3.12,1.15A20.35,20.35,0,0,1,14,32c-1.8-.58-3.24-.89-3.12-1.9C11,29.59,11.69,29.06,13,28.51Z"/></g><g id="layer1"><path id="path3037" d="M141.42,47a27,27,0,0,1-2.94-.76,14.86,14.86,0,0,1,.28-3.07c8.79,2.54,10.83.88,11-4.75V37.07l-1.14,1a6.16,6.16,0,0,1-5.08,1.69c-4.28-.27-6.65-3.4-6.66-8.79,0-3.22.71-5.27,2.5-7.19a7.41,7.41,0,0,1,9.34-1.12l1,.7V21.94l1.84.06,1.84.06.06,7.26c.1,11.33-.23,13.54-2.35,15.69-2.83,2.4-5.73,2.39-9.71,2ZM147,35.85a10,10,0,0,0,1.81-1.31l.93-.85V26.62l-.66-.55c-2.26-1.9-4.68-2.05-6.52-.39-1.19,1.07-1.71,2.62-1.72,5.12,0,3,.62,4.53,2.25,5.29a4.67,4.67,0,0,0,3.91-.24ZM93.72,38.24A10.15,10.15,0,0,1,91,29.56a9.1,9.1,0,0,1,2.86-6.11,6.55,6.55,0,0,1,4.51-1.86c4.75-.33,7.57,2.92,7.59,8.73v1.53c-3.63.1-7.78-.23-11.16.28a6.13,6.13,0,0,0,5.9,5.51,24.1,24.1,0,0,0,5.06-.84l0,2.88a39.12,39.12,0,0,1-5.85,1,9.41,9.41,0,0,1-6.23-2.43Zm8.44-9.92a3.76,3.76,0,0,0-2.59-3.74c-2.25-.42-4,.88-4.53,3.43l-.2.89h7.32v-.58Zm19.14,9.92a10.15,10.15,0,0,1-2.73-8.68,9.14,9.14,0,0,1,2.85-6.11,6.59,6.59,0,0,1,4.51-1.86c4.76-.33,7.58,2.92,7.6,8.73v1.53c-3.88-.05-7.59,0-11.26-.06.22,3.69,2.61,6,6,5.85a19.44,19.44,0,0,0,5.06-.84c.33.2.25,2.54-.1,2.83s-4.09,1.06-5.7,1a9.42,9.42,0,0,1-6.23-2.44Zm8.44-9.92c0-1.79-1.17-3.47-2.59-3.74-2.25-.42-4,.88-4.54,3.43l-.19.89h7.32v-.58ZM173.9,40.4a5.29,5.29,0,0,1-3.07-6.7,6.2,6.2,0,0,1,3-3.22,15.66,15.66,0,0,1,5.65-1.15h1.21V27.84c-.07-4-3.24-3.75-6.37-2.62-.84.31-1.94.56-2.14.62,0-.94-.12-1.59-.12-3l1.73-.55a16,16,0,0,1,3.85-.67c3.38-.19,5.2.55,6.27,2.55.43.82.47,1.19.57,6.8.1,5.92.1,5.93.61,6.47a3.85,3.85,0,0,0,1.77.64,13,13,0,0,1,0,2.34,12.54,12.54,0,0,1-2.73.25,2.82,2.82,0,0,1-2.5-1.69l-.31-.58-.78.62c-1.8,1.45-4.81,2.09-6.62,1.41Zm4.42-3.16a9.51,9.51,0,0,0,1.6-.79l.76-.5V31.64h-.9c-2.13,0-4.65,1.09-5.17,2.23a2.52,2.52,0,0,0,1.06,3.31,3,3,0,0,0,2.65.06ZM77.11,29.32V18.38H68.48V15.43H89.74v2.95H81.11V40.27h-4Zm33.47-2.21V14h3.79V40.27h-3.79Zm48.21,4V21.94c1.23,0,2.51,0,3.74,0,0,.76,0,1.51.07,2.27a7.54,7.54,0,0,1,5.1-2.55l1.41-.15v3.61c-2.37-.69-4.84.87-6,2.39-.43.61-.46.91-.56,6.64l-.1,6-3.69.12V31.11Zm31.37,0V22H194v3.14c1.6-1.79,3.53-3.48,5.68-3.45,2.64-.1,3.71,1.6,4.89,3.48,3.29-3.7,9.29-4.77,11.14-.36.18,6,.08,8.25,0,15.5-1.22,0-2.34,0-3.56,0,0-4.68,0-10-.13-14.37a2.28,2.28,0,0,0-2.84-1.25,9.18,9.18,0,0,0-4.26,3.21c0,4.08.05,8.31.05,12.39h-3.78L201,25.92a2.4,2.4,0,0,0-2.79-1.05A6.82,6.82,0,0,0,194,28.14c0,4,0,8.09,0,12.13h-3.74V31.11Z"/></g></g></g></svg>